<svg width="111" height="110" viewBox="0 0 111 110" fill="none" xmlns="http://www.w3.org/2000/svg">
<path d="M73.8333 73.3333L55.5 55M55.5 55L37.1667 73.3333M55.5 55V96.25M93.9542 84.2875C98.4245 81.8504 101.956 77.994 103.991 73.327C106.026 68.66 106.449 63.4481 105.193 58.514C103.938 53.5798 101.074 49.2044 97.0556 46.0783C93.0368 42.9522 88.0915 41.2534 83 41.25H77.225C75.8377 35.884 73.252 30.9024 69.6623 26.6795C66.0725 22.4567 61.5722 19.1026 56.4996 16.8694C51.427 14.6363 45.9142 13.5821 40.3755 13.7861C34.8369 13.9902 29.4166 15.4472 24.5221 18.0476C19.6276 20.6481 15.3863 24.3242 12.117 28.7997C8.84777 33.2753 6.63566 38.4337 5.64699 43.8872C4.65832 49.3407 4.91882 54.9474 6.4089 60.2858C7.89897 65.6241 10.5799 70.5552 14.25 74.7083" stroke="#F3F3F3" stroke-width="4" stroke-linecap="round" stroke-linejoin="round"/>
</svg>
